<svg width="206" height="64" viewBox="0 0 206 64" fill="none" xmlns="http://www.w3.org/2000/svg">
<g clip-path="url(#clip0_21_627)">
<path d="M7.6745 59.24C6.3145 59.24 5.1465 59.008 4.1705 58.544C3.1945 58.064 2.4425 57.336 1.9145 56.36C1.3865 55.368 1.0905 54.128 1.0265 52.64C1.0105 51.936 1.0025 51.264 1.0025 50.624C1.0025 49.968 1.0105 49.288 1.0265 48.584C1.0905 47.112 1.3945 45.888 1.9385 44.912C2.4985 43.92 3.2665 43.184 4.2425 42.704C5.2345 42.208 6.3785 41.96 7.6745 41.96C8.9865 41.96 10.1305 42.208 11.1065 42.704C12.0985 43.184 12.8745 43.92 13.4345 44.912C13.9945 45.888 14.2985 47.112 14.3465 48.584C14.3785 49.288 14.3945 49.968 14.3945 50.624C14.3945 51.264 14.3785 51.936 14.3465 52.64C14.2985 54.128 14.0025 55.368 13.4585 56.36C12.9305 57.336 12.1785 58.064 11.2025 58.544C10.2265 59.008 9.0505 59.24 7.6745 59.24ZM7.6745 57.2C8.9065 57.2 9.9065 56.832 10.6745 56.096C11.4585 55.36 11.8825 54.168 11.9465 52.52C11.9785 51.8 11.9945 51.16 11.9945 50.6C11.9945 50.024 11.9785 49.384 11.9465 48.68C11.9145 47.576 11.7065 46.68 11.3225 45.992C10.9545 45.304 10.4585 44.8 9.8345 44.48C9.2105 44.16 8.4905 44 7.6745 44C6.8905 44 6.1865 44.16 5.5625 44.48C4.9385 44.8 4.4345 45.304 4.0505 45.992C3.6825 46.68 3.4745 47.576 3.4265 48.68C3.4105 49.384 3.4025 50.024 3.4025 50.6C3.4025 51.16 3.4105 51.8 3.4265 52.52C3.4905 54.168 3.9145 55.36 4.6985 56.096C5.4825 56.832 6.4745 57.2 7.6745 57.2ZM15.5407 63.56C15.3807 63.56 15.2527 63.504 15.1567 63.392C15.0447 63.296 14.9887 63.168 14.9887 63.008V62.192C14.9887 62.032 15.0447 61.896 15.1567 61.784C15.2527 61.688 15.3807 61.64 15.5407 61.64H15.8767C16.4527 61.64 16.8767 61.528 17.1487 61.304C17.4207 61.096 17.5967 60.816 17.6767 60.464C17.7727 60.112 17.8207 59.712 17.8207 59.264V47.072C17.8207 46.912 17.8687 46.784 17.9647 46.688C18.0767 46.576 18.2127 46.52 18.3727 46.52H19.5487C19.7087 46.52 19.8367 46.576 19.9327 46.688C20.0447 46.784 20.1007 46.912 20.1007 47.072V59.288C20.1007 60.136 19.9647 60.88 19.6927 61.52C19.4367 62.16 19.0127 62.656 18.4207 63.008C17.8287 63.376 17.0207 63.56 15.9967 63.56H15.5407ZM18.1807 44.192C18.0207 44.192 17.8847 44.144 17.7727 44.048C17.6767 43.936 17.6287 43.8 17.6287 43.64V42.344C17.6287 42.184 17.6767 42.056 17.7727 41.96C17.8847 41.848 18.0207 41.792 18.1807 41.792H19.7167C19.8767 41.792 20.0127 41.848 20.1247 41.96C20.2367 42.056 20.2927 42.184 20.2927 42.344V43.64C20.2927 43.8 20.2367 43.936 20.1247 44.048C20.0127 44.144 19.8767 44.192 19.7167 44.192H18.1807ZM27.1544 59.24C26.3544 59.24 25.6264 59.08 24.9704 58.76C24.3144 58.44 23.7864 58.008 23.3864 57.464C22.9864 56.92 22.7864 56.304 22.7864 55.616C22.7864 54.512 23.2344 53.632 24.1304 52.976C25.0264 52.32 26.1944 51.888 27.6344 51.68L31.2104 51.176V50.48C31.2104 49.712 30.9864 49.112 30.5384 48.68C30.1064 48.248 29.3944 48.032 28.4024 48.032C27.6824 48.032 27.0984 48.176 26.6504 48.464C26.2184 48.752 25.9144 49.12 25.7384 49.568C25.6424 49.808 25.4744 49.928 25.2344 49.928H24.1544C23.9784 49.928 23.8424 49.88 23.7464 49.784C23.6664 49.672 23.6264 49.544 23.6264 49.4C23.6264 49.16 23.7144 48.864 23.8904 48.512C24.0824 48.16 24.3704 47.816 24.7544 47.48C25.1384 47.144 25.6264 46.864 26.2184 46.64C26.8264 46.4 27.5624 46.28 28.4264 46.28C29.3864 46.28 30.1944 46.408 30.8504 46.664C31.5064 46.904 32.0184 47.232 32.3864 47.648C32.7704 48.064 33.0424 48.536 33.2024 49.064C33.3784 49.592 33.4664 50.128 33.4664 50.672V58.448C33.4664 58.608 33.4104 58.744 33.2984 58.856C33.2024 58.952 33.0744 59 32.9144 59H31.8104C31.6344 59 31.4984 58.952 31.4024 58.856C31.3064 58.744 31.2584 58.608 31.2584 58.448V57.416C31.0504 57.704 30.7704 57.992 30.4184 58.28C30.0664 58.552 29.6264 58.784 29.0984 58.976C28.5704 59.152 27.9224 59.24 27.1544 59.24ZM27.6584 57.44C28.3144 57.44 28.9144 57.304 29.4584 57.032C30.0024 56.744 30.4264 56.304 30.7304 55.712C31.0504 55.12 31.2104 54.376 31.2104 53.48V52.808L28.4264 53.216C27.2904 53.376 26.4344 53.648 25.8584 54.032C25.2824 54.4 24.9944 54.872 24.9944 55.448C24.9944 55.896 25.1224 56.272 25.3784 56.576C25.6504 56.864 25.9864 57.08 26.3864 57.224C26.8024 57.368 27.2264 57.44 27.6584 57.44ZM37.4926 59C37.3326 59 37.1966 58.952 37.0846 58.856C36.9886 58.744 36.9406 58.608 36.9406 58.448V42.512C36.9406 42.352 36.9886 42.224 37.0846 42.128C37.1966 42.016 37.3326 41.96 37.4926 41.96H38.6926C38.8686 41.96 39.0046 42.016 39.1006 42.128C39.1966 42.224 39.2446 42.352 39.2446 42.512V48.104C39.6766 47.56 40.2046 47.12 40.8286 46.784C41.4526 46.448 42.2446 46.28 43.2046 46.28C44.2446 46.28 45.1246 46.512 45.8446 46.976C46.5806 47.424 47.1326 48.056 47.5006 48.872C47.8846 49.672 48.0766 50.608 48.0766 51.68V58.448C48.0766 58.608 48.0286 58.744 47.9326 58.856C47.8366 58.952 47.7006 59 47.5246 59H46.3246C46.1646 59 46.0286 58.952 45.9166 58.856C45.8206 58.744 45.7726 58.608 45.7726 58.448V51.8C45.7726 50.68 45.5006 49.808 44.9566 49.184C44.4126 48.544 43.6126 48.224 42.5566 48.224C41.5646 48.224 40.7646 48.544 40.1566 49.184C39.5486 49.808 39.2446 50.68 39.2446 51.8V58.448C39.2446 58.608 39.1966 58.744 39.1006 58.856C39.0046 58.952 38.8686 59 38.6926 59H37.4926ZM55.8616 59.24C54.9656 59.24 54.1976 59.128 53.5576 58.904C52.9176 58.68 52.3976 58.408 51.9976 58.088C51.5976 57.768 51.2936 57.448 51.0856 57.128C50.8936 56.808 50.7896 56.552 50.7736 56.36C50.7576 56.184 50.8136 56.048 50.9416 55.952C51.0696 55.856 51.1976 55.808 51.3256 55.808H52.3816C52.4776 55.808 52.5496 55.824 52.5976 55.856C52.6616 55.872 52.7416 55.936 52.8376 56.048C53.0456 56.272 53.2776 56.496 53.5336 56.72C53.7896 56.944 54.1016 57.128 54.4696 57.272C54.8536 57.416 55.3256 57.488 55.8856 57.488C56.7016 57.488 57.3736 57.336 57.9016 57.032C58.4296 56.712 58.6936 56.248 58.6936 55.64C58.6936 55.24 58.5816 54.92 58.3576 54.68C58.1496 54.44 57.7656 54.224 57.2056 54.032C56.6616 53.84 55.9096 53.64 54.9496 53.432C53.9896 53.208 53.2296 52.936 52.6696 52.616C52.1096 52.28 51.7096 51.888 51.4696 51.44C51.2296 50.976 51.1096 50.456 51.1096 49.88C51.1096 49.288 51.2856 48.72 51.6376 48.176C51.9896 47.616 52.5016 47.16 53.1736 46.808C53.8616 46.456 54.7176 46.28 55.7416 46.28C56.5736 46.28 57.2856 46.384 57.8776 46.592C58.4696 46.8 58.9576 47.064 59.3416 47.384C59.7256 47.688 60.0136 47.992 60.2056 48.296C60.3976 48.6 60.5016 48.856 60.5176 49.064C60.5336 49.224 60.4856 49.36 60.3736 49.472C60.2616 49.568 60.1336 49.616 59.9896 49.616H58.9816C58.8696 49.616 58.7736 49.592 58.6936 49.544C58.6296 49.496 58.5656 49.44 58.5016 49.376C58.3416 49.168 58.1496 48.96 57.9256 48.752C57.7176 48.544 57.4376 48.376 57.0856 48.248C56.7496 48.104 56.3016 48.032 55.7416 48.032C54.9416 48.032 54.3416 48.2 53.9416 48.536C53.5416 48.872 53.3416 49.296 53.3416 49.808C53.3416 50.112 53.4296 50.384 53.6056 50.624C53.7816 50.864 54.1176 51.08 54.6136 51.272C55.1096 51.464 55.8456 51.672 56.8216 51.896C57.8776 52.104 58.7096 52.384 59.3176 52.736C59.9256 53.088 60.3576 53.496 60.6136 53.96C60.8696 54.424 60.9976 54.96 60.9976 55.568C60.9976 56.24 60.7976 56.856 60.3976 57.416C60.0136 57.976 59.4376 58.424 58.6696 58.76C57.9176 59.08 56.9816 59.24 55.8616 59.24ZM68.432 59.24C67.408 59.24 66.536 59.016 65.816 58.568C65.112 58.104 64.576 57.464 64.208 56.648C63.84 55.832 63.656 54.896 63.656 53.84V47.072C63.656 46.912 63.704 46.784 63.8 46.688C63.912 46.576 64.048 46.52 64.208 46.52H65.408C65.568 46.52 65.696 46.576 65.792 46.688C65.904 46.784 65.96 46.912 65.96 47.072V53.72C65.96 56.104 67 57.296 69.08 57.296C70.072 57.296 70.864 56.984 71.456 56.36C72.064 55.72 72.368 54.84 72.368 53.72V47.072C72.368 46.912 72.416 46.784 72.512 46.688C72.624 46.576 72.76 46.52 72.92 46.52H74.096C74.272 46.52 74.408 46.576 74.504 46.688C74.6 46.784 74.648 46.912 74.648 47.072V58.448C74.648 58.608 74.6 58.744 74.504 58.856C74.408 58.952 74.272 59 74.096 59H72.992C72.832 59 72.696 58.952 72.584 58.856C72.488 58.744 72.44 58.608 72.44 58.448V57.392C72.008 57.952 71.48 58.4 70.856 58.736C70.248 59.072 69.44 59.24 68.432 59.24Z" fill="#26D568"/>
<path d="M86.3001 59.24C84.8281 59.24 83.6041 58.968 82.6281 58.424C81.6681 57.88 80.9401 57.12 80.4441 56.144C79.9481 55.168 79.6761 54.032 79.6281 52.736C79.6121 52.08 79.6041 51.376 79.6041 50.624C79.6041 49.872 79.6121 49.152 79.6281 48.464C79.6761 47.168 79.9481 46.032 80.4441 45.056C80.9401 44.08 81.6681 43.32 82.6281 42.776C83.6041 42.232 84.8281 41.96 86.3001 41.96C87.4041 41.96 88.3721 42.112 89.2041 42.416C90.0361 42.72 90.7241 43.128 91.2681 43.64C91.8281 44.152 92.2521 44.728 92.5401 45.368C92.8281 45.992 92.9881 46.64 93.0201 47.312C93.0361 47.456 92.9881 47.576 92.8761 47.672C92.7801 47.768 92.6601 47.816 92.5161 47.816H91.1961C91.0521 47.816 90.9241 47.776 90.8121 47.696C90.7161 47.616 90.6441 47.472 90.5961 47.264C90.3241 46.016 89.8121 45.16 89.0601 44.696C88.3241 44.232 87.3961 44 86.2761 44C84.9961 44 83.9801 44.368 83.2281 45.104C82.4761 45.824 82.0681 46.984 82.0041 48.584C81.9561 49.896 81.9561 51.24 82.0041 52.616C82.0681 54.216 82.4761 55.384 83.2281 56.12C83.9801 56.84 84.9961 57.2 86.2761 57.2C87.3961 57.2 88.3241 56.968 89.0601 56.504C89.8121 56.04 90.3241 55.184 90.5961 53.936C90.6441 53.728 90.7161 53.584 90.8121 53.504C90.9241 53.424 91.0521 53.384 91.1961 53.384H92.5161C92.6601 53.384 92.7801 53.432 92.8761 53.528C92.9881 53.624 93.0361 53.744 93.0201 53.888C92.9881 54.56 92.8281 55.216 92.5401 55.856C92.2521 56.48 91.8281 57.048 91.2681 57.56C90.7241 58.072 90.0361 58.48 89.2041 58.784C88.3721 59.088 87.4041 59.24 86.3001 59.24ZM101.036 59.24C99.8204 59.24 98.8044 59.008 97.9884 58.544C97.1724 58.08 96.5484 57.44 96.1164 56.624C95.6844 55.792 95.4444 54.848 95.3964 53.792C95.3804 53.52 95.3724 53.176 95.3724 52.76C95.3724 52.328 95.3804 51.984 95.3964 51.728C95.4444 50.656 95.6844 49.712 96.1164 48.896C96.5644 48.08 97.1964 47.44 98.0124 46.976C98.8284 46.512 99.8364 46.28 101.036 46.28C102.236 46.28 103.244 46.512 104.06 46.976C104.876 47.44 105.5 48.08 105.932 48.896C106.38 49.712 106.628 50.656 106.676 51.728C106.692 51.984 106.7 52.328 106.7 52.76C106.7 53.176 106.692 53.52 106.676 53.792C106.628 54.848 106.388 55.792 105.956 56.624C105.524 57.44 104.9 58.08 104.084 58.544C103.268 59.008 102.252 59.24 101.036 59.24ZM101.036 57.392C102.028 57.392 102.82 57.08 103.412 56.456C104.004 55.816 104.324 54.888 104.372 53.672C104.388 53.432 104.396 53.128 104.396 52.76C104.396 52.392 104.388 52.088 104.372 51.848C104.324 50.632 104.004 49.712 103.412 49.088C102.82 48.448 102.028 48.128 101.036 48.128C100.044 48.128 99.2444 48.448 98.6364 49.088C98.0444 49.712 97.7324 50.632 97.7004 51.848C97.6844 52.088 97.6764 52.392 97.6764 52.76C97.6764 53.128 97.6844 53.432 97.7004 53.672C97.7324 54.888 98.0444 55.816 98.6364 56.456C99.2444 57.08 100.044 57.392 101.036 57.392ZM110.258 59C110.098 59 109.962 58.952 109.85 58.856C109.754 58.744 109.706 58.608 109.706 58.448V47.072C109.706 46.912 109.754 46.784 109.85 46.688C109.962 46.576 110.098 46.52 110.258 46.52H111.386C111.546 46.52 111.674 46.576 111.77 46.688C111.882 46.784 111.938 46.912 111.938 47.072V48.128C112.354 47.584 112.874 47.144 113.498 46.808C114.138 46.456 114.954 46.28 115.946 46.28C116.986 46.28 117.866 46.512 118.586 46.976C119.322 47.424 119.874 48.056 120.242 48.872C120.61 49.672 120.794 50.608 120.794 51.68V58.448C120.794 58.608 120.746 58.744 120.65 58.856C120.554 58.952 120.426 59 120.266 59H119.066C118.906 59 118.77 58.952 118.658 58.856C118.562 58.744 118.514 58.608 118.514 58.448V51.8C118.514 50.68 118.242 49.808 117.698 49.184C117.154 48.544 116.354 48.224 115.298 48.224C114.306 48.224 113.506 48.544 112.898 49.184C112.306 49.808 112.01 50.68 112.01 51.8V58.448C112.01 58.608 111.954 58.744 111.842 58.856C111.746 58.952 111.618 59 111.458 59H110.258ZM129.3 59.24C128.164 59.24 127.18 59.024 126.348 58.592C125.532 58.144 124.9 57.512 124.452 56.696C124.004 55.864 123.764 54.872 123.732 53.72C123.716 53.48 123.708 53.16 123.708 52.76C123.708 52.36 123.716 52.04 123.732 51.8C123.764 50.648 124.004 49.664 124.452 48.848C124.9 48.016 125.532 47.384 126.348 46.952C127.18 46.504 128.164 46.28 129.3 46.28C130.228 46.28 131.02 46.408 131.676 46.664C132.348 46.92 132.9 47.248 133.332 47.648C133.764 48.048 134.084 48.48 134.292 48.944C134.516 49.408 134.636 49.848 134.652 50.264C134.668 50.424 134.62 50.552 134.508 50.648C134.396 50.744 134.26 50.792 134.1 50.792H132.948C132.788 50.792 132.668 50.76 132.588 50.696C132.508 50.616 132.428 50.488 132.348 50.312C132.06 49.528 131.668 48.976 131.172 48.656C130.676 48.336 130.06 48.176 129.324 48.176C128.364 48.176 127.58 48.472 126.972 49.064C126.38 49.656 126.06 50.608 126.012 51.92C125.996 52.496 125.996 53.056 126.012 53.6C126.06 54.928 126.38 55.888 126.972 56.48C127.58 57.056 128.364 57.344 129.324 57.344C130.06 57.344 130.676 57.184 131.172 56.864C131.668 56.544 132.06 55.992 132.348 55.208C132.428 55.032 132.508 54.912 132.588 54.848C132.668 54.768 132.788 54.728 132.948 54.728H134.1C134.26 54.728 134.396 54.776 134.508 54.872C134.62 54.968 134.668 55.096 134.652 55.256C134.636 55.592 134.564 55.936 134.436 56.288C134.308 56.64 134.1 57 133.812 57.368C133.54 57.72 133.196 58.04 132.78 58.328C132.364 58.6 131.86 58.824 131.268 59C130.692 59.16 130.036 59.24 129.3 59.24ZM142.471 59.24C140.823 59.24 139.511 58.736 138.535 57.728C137.559 56.704 137.023 55.312 136.927 53.552C136.911 53.344 136.903 53.08 136.903 52.76C136.903 52.424 136.911 52.152 136.927 51.944C136.991 50.808 137.255 49.816 137.719 48.968C138.183 48.104 138.815 47.44 139.615 46.976C140.431 46.512 141.383 46.28 142.471 46.28C143.687 46.28 144.703 46.536 145.519 47.048C146.351 47.56 146.983 48.288 147.415 49.232C147.847 50.176 148.063 51.28 148.063 52.544V52.952C148.063 53.128 148.007 53.264 147.895 53.36C147.799 53.456 147.671 53.504 147.511 53.504H139.207C139.207 53.52 139.207 53.552 139.207 53.6C139.207 53.648 139.207 53.688 139.207 53.72C139.239 54.376 139.383 54.992 139.639 55.568C139.895 56.128 140.263 56.584 140.743 56.936C141.223 57.288 141.799 57.464 142.471 57.464C143.047 57.464 143.527 57.376 143.911 57.2C144.295 57.024 144.607 56.832 144.847 56.624C145.087 56.4 145.247 56.232 145.327 56.12C145.471 55.912 145.583 55.792 145.663 55.76C145.743 55.712 145.871 55.688 146.047 55.688H147.199C147.359 55.688 147.487 55.736 147.583 55.832C147.695 55.912 147.743 56.032 147.727 56.192C147.711 56.432 147.583 56.728 147.343 57.08C147.103 57.416 146.759 57.752 146.311 58.088C145.863 58.424 145.319 58.704 144.679 58.928C144.039 59.136 143.303 59.24 142.471 59.24ZM139.207 51.848H145.783V51.776C145.783 51.056 145.647 50.416 145.375 49.856C145.119 49.296 144.743 48.856 144.247 48.536C143.751 48.2 143.159 48.032 142.471 48.032C141.783 48.032 141.191 48.2 140.695 48.536C140.215 48.856 139.847 49.296 139.591 49.856C139.335 50.416 139.207 51.056 139.207 51.776V51.848ZM151.508 63.56C151.348 63.56 151.212 63.504 151.1 63.392C151.004 63.296 150.956 63.168 150.956 63.008V47.072C150.956 46.912 151.004 46.784 151.1 46.688C151.212 46.576 151.348 46.52 151.508 46.52H152.612C152.772 46.52 152.9 46.576 152.996 46.688C153.108 46.784 153.164 46.912 153.164 47.072V48.128C153.548 47.6 154.06 47.16 154.7 46.808C155.34 46.456 156.14 46.28 157.1 46.28C157.996 46.28 158.756 46.432 159.38 46.736C160.02 47.04 160.54 47.456 160.94 47.984C161.356 48.512 161.668 49.112 161.876 49.784C162.084 50.456 162.196 51.176 162.212 51.944C162.228 52.2 162.236 52.472 162.236 52.76C162.236 53.048 162.228 53.32 162.212 53.576C162.196 54.328 162.084 55.048 161.876 55.736C161.668 56.408 161.356 57.008 160.94 57.536C160.54 58.048 160.02 58.464 159.38 58.784C158.756 59.088 157.996 59.24 157.1 59.24C156.172 59.24 155.388 59.072 154.748 58.736C154.124 58.384 153.612 57.952 153.212 57.44V63.008C153.212 63.168 153.164 63.296 153.068 63.392C152.972 63.504 152.836 63.56 152.66 63.56H151.508ZM156.596 57.296C157.428 57.296 158.076 57.12 158.54 56.768C159.02 56.4 159.364 55.928 159.572 55.352C159.78 54.76 159.9 54.128 159.932 53.456C159.948 52.992 159.948 52.528 159.932 52.064C159.9 51.392 159.78 50.768 159.572 50.192C159.364 49.6 159.02 49.128 158.54 48.776C158.076 48.408 157.428 48.224 156.596 48.224C155.812 48.224 155.172 48.408 154.676 48.776C154.196 49.144 153.836 49.616 153.596 50.192C153.372 50.752 153.244 51.328 153.212 51.92C153.196 52.176 153.188 52.48 153.188 52.832C153.188 53.184 153.196 53.496 153.212 53.768C153.228 54.328 153.356 54.88 153.596 55.424C153.852 55.968 154.228 56.416 154.724 56.768C155.22 57.12 155.844 57.296 156.596 57.296ZM169.961 59C169.065 59 168.337 58.832 167.777 58.496C167.217 58.144 166.809 57.656 166.553 57.032C166.297 56.392 166.169 55.64 166.169 54.776V48.44H164.297C164.137 48.44 164.001 48.392 163.889 48.296C163.793 48.184 163.745 48.048 163.745 47.888V47.072C163.745 46.912 163.793 46.784 163.889 46.688C164.001 46.576 164.137 46.52 164.297 46.52H166.169V42.512C166.169 42.352 166.217 42.224 166.312 42.128C166.424 42.016 166.561 41.96 166.721 41.96H167.849C168.009 41.96 168.137 42.016 168.233 42.128C168.345 42.224 168.401 42.352 168.401 42.512V46.52H171.377C171.537 46.52 171.665 46.576 171.761 46.688C171.873 46.784 171.929 46.912 171.929 47.072V47.888C171.929 48.048 171.873 48.184 171.761 48.296C171.665 48.392 171.537 48.44 171.377 48.44H168.401V54.608C168.401 55.36 168.529 55.952 168.785 56.384C169.041 56.816 169.497 57.032 170.153 57.032H171.617C171.777 57.032 171.905 57.088 172.001 57.2C172.113 57.296 172.169 57.424 172.169 57.584V58.448C172.169 58.608 172.113 58.744 172.001 58.856C171.905 58.952 171.777 59 171.617 59H169.961ZM175.016 59C174.856 59 174.72 58.952 174.608 58.856C174.512 58.744 174.464 58.608 174.464 58.448V47.072C174.464 46.912 174.512 46.784 174.608 46.688C174.72 46.576 174.856 46.52 175.016 46.52H176.168C176.328 46.52 176.456 46.576 176.552 46.688C176.648 46.784 176.696 46.912 176.696 47.072V58.448C176.696 58.608 176.648 58.744 176.552 58.856C176.456 58.952 176.328 59 176.168 59H175.016ZM174.824 44.192C174.664 44.192 174.528 44.144 174.416 44.048C174.32 43.936 174.271 43.8 174.271 43.64V42.344C174.271 42.184 174.32 42.056 174.416 41.96C174.528 41.848 174.664 41.792 174.824 41.792H176.336C176.496 41.792 176.624 41.848 176.72 41.96C176.832 42.056 176.888 42.184 176.888 42.344V43.64C176.888 43.8 176.832 43.936 176.72 44.048C176.624 44.144 176.496 44.192 176.336 44.192H174.824ZM185.388 59.24C184.172 59.24 183.156 59.008 182.34 58.544C181.524 58.08 180.9 57.44 180.468 56.624C180.036 55.792 179.796 54.848 179.748 53.792C179.732 53.52 179.724 53.176 179.724 52.76C179.724 52.328 179.732 51.984 179.748 51.728C179.796 50.656 180.036 49.712 180.468 48.896C180.916 48.08 181.548 47.44 182.364 46.976C183.18 46.512 184.188 46.28 185.388 46.28C186.588 46.28 187.596 46.512 188.412 46.976C189.228 47.44 189.852 48.08 190.284 48.896C190.732 49.712 190.98 50.656 191.028 51.728C191.044 51.984 191.052 52.328 191.052 52.76C191.052 53.176 191.044 53.52 191.028 53.792C190.98 54.848 190.74 55.792 190.308 56.624C189.876 57.44 189.252 58.08 188.436 58.544C187.62 59.008 186.604 59.24 185.388 59.24ZM185.388 57.392C186.38 57.392 187.172 57.08 187.764 56.456C188.356 55.816 188.676 54.888 188.724 53.672C188.74 53.432 188.748 53.128 188.748 52.76C188.748 52.392 188.74 52.088 188.724 51.848C188.676 50.632 188.356 49.712 187.764 49.088C187.172 48.448 186.38 48.128 185.388 48.128C184.396 48.128 183.596 48.448 182.988 49.088C182.396 49.712 182.084 50.632 182.052 51.848C182.036 52.088 182.028 52.392 182.028 52.76C182.028 53.128 182.036 53.432 182.052 53.672C182.084 54.888 182.396 55.816 182.988 56.456C183.596 57.08 184.396 57.392 185.388 57.392ZM194.609 59C194.449 59 194.313 58.952 194.201 58.856C194.105 58.744 194.057 58.608 194.057 58.448V47.072C194.057 46.912 194.105 46.784 194.201 46.688C194.313 46.576 194.449 46.52 194.609 46.52H195.737C195.897 46.52 196.025 46.576 196.121 46.688C196.233 46.784 196.289 46.912 196.289 47.072V48.128C196.705 47.584 197.225 47.144 197.849 46.808C198.489 46.456 199.305 46.28 200.297 46.28C201.337 46.28 202.217 46.512 202.937 46.976C203.673 47.424 204.225 48.056 204.593 48.872C204.961 49.672 205.145 50.608 205.145 51.68V58.448C205.145 58.608 205.097 58.744 205.001 58.856C204.905 58.952 204.777 59 204.617 59H203.417C203.257 59 203.121 58.952 203.009 58.856C202.913 58.744 202.865 58.608 202.865 58.448V51.8C202.865 50.68 202.593 49.808 202.049 49.184C201.505 48.544 200.705 48.224 199.649 48.224C198.657 48.224 197.857 48.544 197.249 49.184C196.657 49.808 196.361 50.68 196.361 51.8V58.448C196.361 58.608 196.305 58.744 196.193 58.856C196.097 58.952 195.969 59 195.809 59H194.609Z" fill="#19AE52"/>
<path d="M118.24 1.064C117.904 1.16 117.304 1.23201 116.872 1.256C115.744 1.28 110.368 3.272 107.392 4.76001C103.888 6.488 100.432 8.864 98.056 11.096L96.064 12.992L94.552 11.6C92.992 10.184 91.192 9.128 87.352 7.35201C85.048 6.29601 82.288 5.36 81.496 5.36C80.848 5.36 80.92 5.792 81.904 8.45601C83.32 12.2 83.896 14.936 84.136 18.8C84.376 22.544 84.664 23.696 85.816 25.376C87.376 27.632 89.224 28.76 91.792 29L93.496 29.192L94.768 30.896C95.464 31.832 96.112 32.696 96.184 32.84C96.28 32.96 95.992 34.16 95.536 35.48C94.744 37.88 94.528 39.2 94.936 39.2C95.176 39.2 95.728 37.832 96.52 35.36C97.144 33.416 97.144 33.416 99.64 33.944C102.136 34.496 103.552 34.352 106.552 33.272C109.48 32.216 111.568 30.392 112.84 27.8C113.872 25.736 114.16 24.176 114.4 19.616C114.712 13.232 115.84 8.48 118.264 3.248C118.768 2.12 119.128 1.112 119.032 1.04C118.912 0.944004 118.576 0.944004 118.24 1.064ZM117.52 2.312C117.52 2.36 117.088 3.488 116.56 4.832C114.4 10.376 113.752 13.544 113.44 19.64C113.2 24.632 112.816 26.288 111.256 28.616C109.24 31.64 106.096 33.08 101.68 33.056C98.92 33.032 97.84 32.744 97.84 32.048C97.84 31.472 99.736 27.152 100.096 26.912C100.24 26.816 101.32 26.72 102.472 26.72C104.32 26.72 104.752 26.624 106 26C107.32 25.328 108.088 24.56 107.776 24.248C107.704 24.176 106.984 24.44 106.168 24.824C103.912 25.88 101.272 26.216 100.84 25.496C100.6 25.136 103.792 19.208 104.512 18.608C104.728 18.464 105.28 18.32 105.76 18.32C106.864 18.32 109.12 17.672 109.672 17.168C110.032 16.856 110.272 15.92 109.984 15.92C109.912 15.92 109.36 16.232 108.712 16.616C107.272 17.504 105.832 17.816 105.616 17.288C105.448 16.856 106.144 15.776 109.192 11.768C110.368 10.208 111.28 8.888 111.208 8.816C110.824 8.408 109.912 9.32 107.32 12.68C105.736 14.72 104.32 16.4 104.176 16.4C104.008 16.4 103.864 15.68 103.792 14.36C103.672 12.272 103.312 11.384 102.88 12.08C102.544 12.608 102.592 13.856 103.048 16.208L103.432 18.296L102.832 19.208C102.496 19.712 101.68 21.176 100.984 22.448C100.288 23.744 99.64 24.848 99.52 24.92C99.136 25.16 98.8 23.48 98.8 21.224C98.8 18.68 98.56 17.888 98.08 18.8C97.6 19.712 97.888 23.72 98.536 25.112L99.064 26.264L98.224 28.304C97.768 29.456 97.192 30.632 96.976 30.968L96.592 31.568L95.776 30.776C95.32 30.344 94.72 29.384 94.432 28.664C93.952 27.464 93.88 26.888 93.88 23.48C93.88 19.712 93.904 19.616 94.624 17.96C96.856 12.776 101.128 8.864 108.28 5.45601C112.384 3.488 117.52 1.736 117.52 2.312ZM85.24 7.568C87.928 8.552 90.88 9.968 92.248 10.904C93.928 12.056 95.44 13.52 95.416 13.976C95.392 14.696 93.4 18.44 93.04 18.44C92.368 18.44 92.104 17.432 92.464 16.232C92.824 15.032 92.92 13.28 92.632 13.28C92.152 13.304 91.864 13.736 91.72 14.792C91.624 15.416 91.456 15.968 91.36 16.04C91.264 16.088 90.472 15.176 89.584 14C88.096 12.008 86.848 10.736 86.632 10.976C86.392 11.216 86.872 12.08 88.096 13.616C89.56 15.464 90.328 16.784 90.088 17.024C89.992 17.12 89.32 16.952 88.552 16.688C87.808 16.4 87.136 16.232 87.088 16.28C87.04 16.328 87.064 16.568 87.136 16.832C87.328 17.432 88.888 18.08 90.112 18.08C91.168 18.08 91.84 18.656 92.44 20.048C92.848 21.08 92.92 22.784 92.536 23.024C92.392 23.096 91.528 22.88 90.616 22.52C89.704 22.136 88.912 21.896 88.84 21.968C88.384 22.4 89.872 23.384 92.104 24.152C92.536 24.296 93.04 26 93.04 27.296C93.04 28.16 93.04 28.16 92.032 28.16C90.568 28.16 88.288 27.032 87.208 25.76C85.816 24.128 85.336 22.544 85.096 18.68C84.88 15.176 84.232 11.936 83.104 8.816C82.36 6.776 82.336 6.44 82.912 6.68C83.128 6.776 84.184 7.16 85.24 7.568Z" fill="#19AE52"/>
</g>
<defs>
<clipPath id="clip0_21_627">
<rect width="206" height="64" fill="white"/>
</clipPath>
</defs>
</svg>
